<svg width="349mm" height="61.5mm" version="1.1" viewBox="0 0 349 61.5" xmlns="http://www.w3.org/2000/svg">
  <defs>
    <marker id="Arrow1Lend" overflow="visible" orient="auto">
      <path transform="matrix(-.8 0 0 -.8 -10 0)" d="m0 0 5-5-17.5 5 17.5 5z" fill="context-stroke" fill-rule="evenodd" stroke="context-stroke" stroke-width="1pt"/>
    </marker>
    <marker id="Arrow1Lend-3" overflow="visible" orient="auto">
      <path transform="matrix(-.8 0 0 -.8 -10 0)" d="m0 0 5-5-17.5 5 17.5 5z" fill="context-stroke" fill-rule="evenodd" stroke="context-stroke" stroke-width="1pt"/>
    </marker>
    <marker id="Arrow1Lend-3-5" overflow="visible" orient="auto">
      <path transform="matrix(-.8 0 0 -.8 -10 0)" d="m0 0 5-5-17.5 5 17.5 5z" fill="context-stroke" fill-rule="evenodd" stroke="context-stroke" stroke-width="1pt"/>
    </marker>
    <marker id="Arrow1Lend-3-5-6" overflow="visible" orient="auto">
      <path transform="matrix(-.8 0 0 -.8 -10 0)" d="m0 0 5-5-17.5 5 17.5 5z" fill="context-stroke" fill-rule="evenodd" stroke="context-stroke" stroke-width="1pt"/>
    </marker>
    <marker id="Arrow1Lend-3-5-6-1" overflow="visible" orient="auto">
      <path transform="matrix(-.8 0 0 -.8 -10 0)" d="m0 0 5-5-17.5 5 17.5 5z" fill="context-stroke" fill-rule="evenodd" stroke="context-stroke" stroke-width="1pt"/>
    </marker>
    <marker id="Arrow1Lend-0" overflow="visible" orient="auto">
      <path transform="matrix(-.8 0 0 -.8 -10 0)" d="m0 0 5-5-17.5 5 17.5 5z" fill="context-stroke" fill-rule="evenodd" stroke="context-stroke" stroke-width="1pt"/>
    </marker>
  </defs>
  <g transform="translate(13.6 -81.7)">
    <rect x="-13.6" y="81.7" width="349" height="61.5" fill="#ffffff"/>
    <g>
      <g>
        <text x="-6.7758698" y="138.60011" fill="#a02c2c" font-family="sans-serif" font-size="5.29px" stroke-width=".116" style="line-height:1.25" xml:space="preserve"><tspan x="-6.7758698" y="138.60011" fill="#a02c2c" font-size="5.29px" stroke-width=".116">SYMBOL LIST</tspan></text>
        <path d="m30.1 137 28.1-7.15" fill="none" marker-end="url(#Arrow1Lend-3-5)" stroke="#a02c2c" stroke-width=".5"/>
      </g>
      <g>
        <path d="m218 124 64.3-0.0542" fill="none" marker-end="url(#Arrow1Lend-0)" stroke="#a02c2c" stroke-width=".5"/>
        <text x="250.79942" y="109.06402" fill="#a02c2c" font-family="sans-serif" font-size="5.29px" stroke-width=".217" text-align="center" text-anchor="middle" style="line-height:1.25" xml:space="preserve"><tspan x="250.79942" y="109.06402" text-align="center">report for</tspan><tspan x="250.79942" y="115.6786" text-align="center">semantically</tspan><tspan x="250.79942" y="122.29319" text-align="center">different symbols</tspan></text>
      </g>
      <g>
        <path d="m105 112h63" fill="none" marker-end="url(#Arrow1Lend-3)" stroke="#000080" stroke-width=".5"/>
        <text x="113.85083" y="110.49675" fill="#000080" font-family="sans-serif" font-size="5.29px" stroke-width=".217" style="line-height:1.25" xml:space="preserve"><tspan x="113.85083" y="110.49675" fill="#000080" font-size="5.29px" stroke-width=".217">OLD SNAPSHOT</tspan></text>
      </g>
      <g>
        <path d="m105 124h63" fill="none" marker-end="url(#Arrow1Lend)" stroke="#000080" stroke-width=".5"/>
        <text x="113.62862" y="123.31897" fill="#000080" font-family="sans-serif" font-size="5.29px" stroke-width=".217" style="line-height:1.25" xml:space="preserve"><tspan x="113.62862" y="123.31897" fill="#000080" font-size="5.29px" stroke-width=".217">NEW SNAPSHOT</tspan></text>
      </g>
      <g>
        <text x="-11.098493" y="117.93334" fill="#008000" font-family="sans-serif" font-size="4.91px" stroke-width=".101" style="line-height:1.25" xml:space="preserve"><tspan x="-11.098493" y="117.93334" fill="#008000" stroke-width=".101">project versions</tspan></text>
        <g>
          <path d="m30.1 112h25.4" fill="none" marker-end="url(#Arrow1Lend-3-5-6-1)" stroke="#008000" stroke-width=".5"/>
          <text x="34.358036" y="110.49675" fill="#008000" font-family="sans-serif" font-size="5.29px" stroke-width=".217" style="line-height:1.25" xml:space="preserve"><tspan x="34.358036" y="110.49675" fill="#008000" stroke-width=".217">OLD</tspan></text>
        </g>
        <g>
          <path d="m30.1 124h25.4" fill="none" marker-end="url(#Arrow1Lend-3-5-6)" stroke="#008000" stroke-width=".5"/>
          <text x="33.504082" y="123.32156" fill="#008000" font-family="sans-serif" font-size="5.29px" stroke-width=".217" style="line-height:1.25" xml:space="preserve"><tspan x="33.504082" y="123.32156" fill="#008000" stroke-width=".217">NEW</tspan></text>
        </g>
      </g>
      <g>
        <rect x="56" y="102" width="48.8" height="28.6" ry="7.78" fill="none" stroke="#000080" stroke-width="1.17"/>
        <text x="80.476913" y="114.36102" fill="#000080" font-family="sans-serif" font-size="6.35px" stroke-width=".162" text-align="center" text-anchor="middle" style="line-height:1.25" xml:space="preserve"><tspan x="80.476913" y="114.36102" text-align="center">Snapshot</tspan><tspan x="80.476913" y="122.29852" text-align="center">generation</tspan></text>
        <text x="80.061958" y="89.482262" fill="#000080" font-family="sans-serif" font-size="4.23px" stroke-width=".265" text-align="center" text-anchor="middle" style="line-height:1.25" xml:space="preserve"><tspan x="80.061958" y="89.482262" text-align="center">build</tspan><tspan x="80.061958" y="94.773926" text-align="center">build-kernel</tspan><tspan x="80.061958" y="100.06558" text-align="center">llvm-to-snapshot</tspan></text>
      </g>
      <g>
        <rect x="169" y="102" width="48.8" height="28.6" ry="7.78" fill="none" stroke="#a02c2c" stroke-width="1.17"/>
        <text x="193.64085" y="114.36102" fill="#a02c2c" font-family="sans-serif" font-size="6.35px" stroke-width=".162" text-align="center" text-anchor="middle" style="line-height:1.25" xml:space="preserve"><tspan x="193.64085" y="114.36102" text-align="center">Semantic</tspan><tspan x="193.64085" y="122.29852" text-align="center">comparison</tspan></text>
        <text x="193.39746" y="100.06558" fill="#a02c2c" font-family="sans-serif" font-size="4.23px" stroke-width=".265" text-align="center" text-anchor="middle" style="line-height:1.25" xml:space="preserve"><tspan x="193.39746" y="100.06558" fill="#a02c2c" font-size="4.23px" stroke-width=".265" text-align="center" text-anchor="middle">compare</tspan></text>
      </g>
      <g>
        <rect x="283" y="102" width="48.8" height="28.6" ry="7.78" fill="none" stroke="#008000" stroke-width="1.17"/>
        <text x="307.9086" y="114.83033" fill="#008000" font-family="sans-serif" font-size="6.35px" stroke-width=".162" text-align="center" text-anchor="middle" style="line-height:1.25" xml:space="preserve"><tspan x="307.9086" y="114.83033" text-align="center">Result</tspan><tspan x="307.9086" y="122.76783" text-align="center">visualisation</tspan></text>
        <text x="307.75925" y="100.8862" fill="#008000" font-family="sans-serif" font-size="4.23px" stroke-width=".265" text-align="center" text-anchor="middle" style="line-height:1.25" xml:space="preserve"><tspan x="307.75925" y="100.8862" fill="#008000" font-size="4.23px" stroke-width=".265" text-align="center" text-anchor="middle">view</tspan></text>
      </g>
    </g>
  </g>
</svg>
